<svg xmlns="http://www.w3.org/2000/svg" viewBox="0 0 220 120" fill="none">
  <defs>
    <linearGradient id="sunGold" x1="0" y1="0" x2="1" y2="1">
      <stop offset="0" stop-color="#C9B08A"/>
      <stop offset="1" stop-color="#9D845F"/>
    </linearGradient>
  </defs>

  <g stroke="url(#sunGold)" stroke-linecap="round">
    <line x1="110" y1="100" x2="20" y2="100" stroke-width="1.8"/>
    <line x1="110" y1="100" x2="29" y2="88" stroke-width="1.8"/>
    <line x1="110" y1="100" x2="38" y2="74" stroke-width="1.8"/>
    <line x1="110" y1="100" x2="47" y2="62" stroke-width="1.8"/>
    <line x1="110" y1="100" x2="56" y2="50" stroke-width="1.8"/>
    <line x1="110" y1="100" x2="68" y2="38" stroke-width="1.8"/>
    <line x1="110" y1="100" x2="80" y2="28" stroke-width="1.8"/>
    <line x1="110" y1="100" x2="94" y2="18" stroke-width="1.8"/>
    <line x1="110" y1="100" x2="110" y2="14" stroke-width="2.2"/>
    <line x1="110" y1="100" x2="126" y2="18" stroke-width="1.8"/>
    <line x1="110" y1="100" x2="140" y2="28" stroke-width="1.8"/>
    <line x1="110" y1="100" x2="152" y2="38" stroke-width="1.8"/>
    <line x1="110" y1="100" x2="164" y2="50" stroke-width="1.8"/>
    <line x1="110" y1="100" x2="173" y2="62" stroke-width="1.8"/>
    <line x1="110" y1="100" x2="182" y2="74" stroke-width="1.8"/>
    <line x1="110" y1="100" x2="191" y2="88" stroke-width="1.8"/>
    <line x1="110" y1="100" x2="200" y2="100" stroke-width="1.8"/>
  </g>

  <g fill="#B59B76" opacity="0.8">
    <circle cx="38" cy="56" r="1.6"/>
    <circle cx="58" cy="38" r="1.5"/>
    <circle cx="83" cy="24" r="1.5"/>
    <circle cx="110" cy="18" r="1.5"/>
    <circle cx="137" cy="24" r="1.5"/>
    <circle cx="162" cy="38" r="1.5"/>
    <circle cx="182" cy="56" r="1.6"/>
  </g>
</svg>
